<svg xmlns="http://www.w3.org/2000/svg" viewBox="0 0 512 512">
  <defs>
    <linearGradient id="bg" x1="0" y1="0" x2="1" y2="1">
      <stop stop-color="#8d7bea"/>
      <stop offset="1" stop-color="#5944bd"/>
    </linearGradient>
  </defs>
  <rect width="512" height="512" rx="112" fill="url(#bg)"/>
  <rect x="76" y="126" width="142" height="260" rx="34" fill="#292730"/>
  <rect x="218" y="126" width="106" height="130" fill="#f3f0ff"/>
  <rect x="218" y="256" width="106" height="130" fill="#dcecff"/>
  <rect x="324" y="126" width="112" height="78" rx="0 26 0 0" fill="#e5f7ef"/>
  <rect x="324" y="204" width="112" height="104" fill="#fff0e4"/>
  <rect x="324" y="308" width="112" height="78" rx="0 0 26 0" fill="#eee9ff"/>
  <path d="M120 323V190h42c35 0 56 17 56 45 0 17-9 31-24 38 20 7 31 23 31 44 0 31-23 50-61 50h-44zm34-80h11c13 0 20-6 20-17s-7-17-21-17h-10v34zm0 94h15c15 0 23-7 23-20s-8-20-24-20h-14v40z" fill="#fff"/>
</svg>
